# xmcd
#
# Track frame offsets:
#  150
#  17725
#  28237
#  42261
#  54337
#  67059
#  81719
#  92752
#  104451
#  120299
#
# Disc length: 1748 seconds
#
# Revision: 0
# Processed by: cddbd v1.5.2PL0 Copyright (c) Steve Scherf et al.
# Submitted via: Collectorz.com_Music_Collector 6.11
#
DISCID=8406d20a
DTITLE=Mel Tillis - Me And Pepper
DYEAR=1979
DGENRE=
TTITLE0=Blind In Love
TTITLE1=Black Jack Water Back
TTITLE2=Lying Time Again
TTITLE3=This Is Me
TTITLE4=All My Love
TTITLE5=Uphill All The Way
TTITLE6=I'm Sorry
TTITLE7=Let Me Be The Keeper
TTITLE8=Fooled Around And Fell In Love
TTITLE9=You Threw Away The Mold
EXTD=
EXTT0=
EXTT1=
EXTT2=
EXTT3=
EXTT4=
EXTT5=
EXTT6=
EXTT7=
EXTT8=
EXTT9=
PLAYORDER=
